<?xml version="1.0" encoding="UTF-8"?>
<svg id="Layer_1" data-name="Layer 1" xmlns="http://www.w3.org/2000/svg" viewBox="0 0 1080 1080">
  <defs>
    <style>
      .cls-1 {
        fill: #2338aa;
      }

      .cls-2 {
        fill: #e23030;
      }

      .cls-3 {
        fill: #fbfb3d;
      }
    </style>
  </defs>
  <g id="bg_yellow" data-name="bg yellow">
    <rect class="cls-3" y="0" width="1080" height="1080"/>
  </g>
  <g>
    <g>
      <g>
        <path class="cls-1" d="M243.44,443.31c14.86,18.74,29.73,37.48,44.59,56.22,27.33-22.56,54.66-45.11,81.99-67.67l-21.49-10.06c26.82-11.33,53.63-22.65,80.45-33.98l-24.97,83.24c-4.39-6.94-8.78-13.87-13.16-20.81l-65.9,93.98,72.13,93.99h-75.26c-11.44-14.56-22.88-29.13-34.32-43.69l-60.35,85.31-4.72-55c52.67-61.2,105.33-122.4,158-183.61-57.91,57.23-115.82,114.46-173.72,171.69-17.7-.59-35.39-1.17-53.09-1.76l86.73-73.17-72.85-94.68h75.95Z"/>
        <path class="cls-2" d="M199.87,668.34c2.47-3.48,6.78-9.55,7.02-18.44.22-8.32-3.24-14.5-4.89-17.07.54,2.02,2.04,8.73-1.26,16.07-2.51,5.58-6.53,8.69-8.4,9.97-.05-2.72-.11-5.44-.16-8.15-1.24,2.21-4.6,7.48-11.24,10.62-3.65,1.72-7.01,2.21-9.26,2.33-.12-2.25-.01-5.65,1.3-9.46,2.4-6.95,7.27-10.86,9.32-12.34-2.71.24-5.42.49-8.12.73,1.06-2,3.71-6.33,8.99-9.44,6.93-4.08,13.76-3.32,15.83-3.01-2.74-1.36-9.26-4.12-17.5-2.99-8.81,1.21-14.37,6.15-17.56,8.99-7.58,6.74-10.8,14.69-12.16,19.01,1.41-.96,3.84-2.33,7.11-2.79,1.43-.2,2.71-.19,3.76-.1-4.43,4.93-10.94,13.61-14.35,26-1.43,5.19-2.01,9.94-2.19,13.94,3.96-.61,8.62-1.71,13.62-3.7,11.94-4.74,19.86-12.16,24.28-17.1.21,1.04.36,2.31.31,3.75-.11,3.3-1.2,5.87-2,7.38,4.14-1.83,11.7-5.9,17.57-14.17Z"/>
      </g>
      <path class="cls-1" d="M530.82,483.23v101.63c0,7.97-6.46,14.43-14.43,14.43h-61.03c-7.97,0-14.43-6.46-14.43-14.43v-101.63h-38.17v116.06c0,21.08,17.09,38.17,38.17,38.17h89.89c21.08,0,38.17-17.09,38.17-38.17v-116.06h-38.17Z"/>
      <path class="cls-1" d="M716.1,587.28c3.64-.72,13.46-3.17,21.83-11.93,9.81-10.28,11.05-22.35,11.28-25.77v-24.26c0-23.24-18.84-42.09-42.09-42.09h-117.7v154.22h38.17v-116.06h70.6c7.1,0,12.86,5.76,12.86,12.86v11.37c0,7.11-5.76,12.86-12.87,12.86l-59.43-.06c24.54,26.19,49.08,52.37,73.61,78.56,16.55.09,33.1.19,49.65.28-15.3-16.66-30.61-33.32-45.91-49.98Z"/>
      <g>
        <path class="cls-1" d="M912.36,511.2l-10.4.77c-.72.75-2.52,2.57-4.85,4.94,9.01,11.07,14.41,25.19,14.41,40.59,0,35.55-28.81,64.36-64.36,64.36s-64.37-28.81-64.37-64.36,28.82-64.36,64.37-64.36c15.06,0,28.9,5.17,39.87,13.83l4.9-4.92.66-10.35c-12.9-8.94-28.55-14.16-45.42-14.16-44.16,0-79.96,35.79-79.96,79.96s35.79,79.96,79.96,79.96,79.96-35.81,79.96-79.96c0-17.25-5.46-33.23-14.76-46.3Z"/>
        <path class="cls-1" d="M891.18,523.69c-3.39,3.45-6.96,7.07-9.84,10,4.56,6.66,7.23,14.72,7.23,23.4,0,22.92-18.55,41.5-41.44,41.5s-41.44-18.58-41.44-41.5,18.55-41.49,41.44-41.49c9.05,0,17.42,2.91,24.23,7.83,2.89-2.89,6.43-6.44,9.8-9.84-9.4-7.29-21.19-11.65-34.01-11.65-30.64,0-55.48,24.86-55.48,55.55s24.84,55.55,55.48,55.55,55.48-24.88,55.48-55.55c0-12.72-4.27-24.45-11.46-33.81Z"/>
        <path class="cls-2" d="M847.17,530.14c-15.09,0-27.32,12.25-27.32,27.36s12.23,27.36,27.32,27.36,27.31-12.25,27.31-27.36-12.23-27.36-27.31-27.36ZM846.93,570.89c-7.39,0-13.38-6-13.38-13.4s5.99-13.4,13.38-13.4,13.37,6,13.37,13.4-5.99,13.4-13.37,13.4Z"/>
        <path class="cls-1" d="M848.08,557.04l-.2.2c.05-.02.1-.03.15-.05-.02.05-.03.1-.05.15l.2-.2c10.74-3.64,21.47-7.29,32.21-10.93-.01-.05-.14-.58-.15-.63-.01-.06-.15-.63-.16-.69-3.35-1.74-6.69-3.48-10.04-5.22.84-.85,16.11-16.39,16.96-17.25.57-.58,13.38-13.61,13.96-14.19,4.32-.32,8.64-.64,12.95-.96,6.67-5.99,13.33-11.97,20-17.96-5.85-.39-11.7-.79-17.56-1.18-.46-5.85-.91-11.7-1.37-17.54-5.91,6.73-11.83,13.46-17.74,20.19-.27,4.32-.55,8.64-.82,12.96-.58.58-13.47,13.53-14.04,14.11-.85.86-16.22,16.29-17.06,17.14-1.77-3.33-3.55-6.65-5.32-9.98-.06-.01-.63-.14-.69-.16-.05-.01-.58-.13-.63-.14-3.53,10.78-7.05,21.55-10.58,32.33Z"/>
      </g>
    </g>
    <g>
      <path class="cls-1" d="M292.98,677.71c0-8.14,5.82-14.39,13.54-14.39,6.6,0,12.03,4.44,13.11,11.03h-3.05c-.89-4.94-4.98-8.45-10.07-8.45-6.13,0-10.57,5.01-10.57,11.8s4.44,11.88,10.57,11.88c5.13,0,9.22-3.55,10.07-8.49h3.05c-1.08,6.6-6.52,11.07-13.11,11.07-7.71,0-13.54-6.29-13.54-14.46Z"/>
      <path class="cls-1" d="M341.65,691.6v-27.69h9.87c5.86,0,9.53,3.05,9.53,8.37,0,4.17-2.74,7.29-7.1,8.02l7.83,11.3h-3.47l-7.44-10.95h-6.33v10.95h-2.89ZM344.55,678.22h6.75c4.24,0,6.87-2.08,6.87-5.94s-2.62-5.94-6.87-5.94h-6.75v11.88Z"/>
      <path class="cls-1" d="M400.2,691.6h-16.62v-27.69h16.35v2.51h-13.46v9.64h12.3v2.51h-12.3v10.53h13.73v2.51Z"/>
      <path class="cls-1" d="M439.54,683.92h-12.92l-2.93,7.68h-2.86l10.76-27.69h3.16l10.72,27.69h-3.05l-2.89-7.68ZM427.51,681.57h11.11l-5.52-14.58-5.59,14.58Z"/>
      <path class="cls-1" d="M471.37,691.6v-25.11h-9.3v-2.58h21.44v2.58h-9.29v25.11h-2.85Z"/>
      <path class="cls-1" d="M504.77,691.6v-27.69h2.89v27.69h-2.89Z"/>
      <path class="cls-1" d="M542.49,691.6h-3.16l-10.34-27.69h3.01l8.95,24.37,9.02-24.37h2.89l-10.38,27.69Z"/>
      <path class="cls-1" d="M590.82,691.6h-16.62v-27.69h16.35v2.51h-13.46v9.64h12.3v2.51h-12.3v10.53h13.73v2.51Z"/>
      <path class="cls-1" d="M638.68,691.6v-27.69h5.86v22.41h12.03v5.28h-17.9Z"/>
      <path class="cls-1" d="M694.38,685.66h-10.76l-2.12,5.94h-5.9l10.41-27.69h6.4l10.34,27.69h-6.29l-2.08-5.94ZM685.27,680.99h7.48l-3.7-10.68-3.78,10.68Z"/>
      <path class="cls-1" d="M734.29,691.6h-10.84v-27.69h10.41c5.82,0,9.41,2.62,9.41,7.37,0,2.55-1.43,4.59-3.9,5.86,3.09,1.08,4.78,3.28,4.78,6.33,0,5.13-3.78,8.14-9.87,8.14ZM728.78,668.54v6.44h4.63c2.85,0,4.32-1.23,4.32-3.24s-1.47-3.2-4.32-3.2h-4.63ZM728.78,679.64v7.33h5.05c3.16,0,4.82-1.39,4.82-3.74,0-2.2-1.66-3.59-4.82-3.59h-5.05Z"/>
      <path class="cls-1" d="M775.84,691.98c-6.98,0-11.34-3.74-11.76-9.6h5.94c.15,3.05,2.12,5.01,5.71,5.01,2.97,0,5.09-1.31,5.09-3.55,0-1.74-1.35-2.78-3.7-3.24l-4.55-.89c-4.2-.81-7.44-3.09-7.44-7.68,0-4.94,4.36-8.49,10.34-8.49s10.76,3.63,11.15,9.41h-5.94c-.19-2.89-2.2-4.86-5.13-4.86s-4.47,1.62-4.47,3.55,1.74,2.7,3.74,3.09l4.74.96c4.86.96,7.48,3.2,7.48,7.29,0,5.28-4.24,8.99-11.18,8.99Z"/>
    </g>
  </g>
</svg>