<?xml version="1.0" encoding="UTF-8"?>
<svg id="Layer_1" data-name="Layer 1" xmlns="http://www.w3.org/2000/svg" viewBox="250 250 580 580">
  <defs>
    <style>
      .cls-1 {
        fill: #2338aa;
      }

      .cls-2 {
        fill: #e23030;
      }

      .cls-3 {
        fill: #fbfb3d;
      }
    </style>
  </defs>
  <g id="Icon">
  <!-- REMOVE BACKGROUND YELLOW -->
    <!-- <rect class="cls-3" y="0" width="1080" height="1080"/> -->
  </g>
  <g>
    <rect class="cls-1" x="259.82" y="259.82" width="560.37" height="560.37" rx="94.13" ry="94.13"/>
    <g>
      <path class="cls-3" d="M480.52,409.58c20.05,25.28,40.1,50.55,60.15,75.83,36.86-30.43,73.73-60.85,110.59-91.28l-28.99-13.56c36.17-15.28,72.35-30.56,108.52-45.83l-33.68,112.27c-5.92-9.36-11.84-18.71-17.76-28.07l-88.88,126.77,97.29,126.78h-101.51c-15.43-19.65-30.86-39.29-46.29-58.94l-81.41,115.07-6.37-74.19c71.04-82.55,142.08-165.11,213.12-247.66-78.11,77.19-156.22,154.39-234.33,231.58-23.87-.79-47.74-1.58-71.61-2.37l116.98-98.7-98.27-127.71h102.45Z"/>
      <path class="cls-2" d="M421.75,713.11c3.33-4.7,9.14-12.88,9.46-24.87.3-11.22-4.37-19.56-6.59-23.03.72,2.73,2.75,11.78-1.7,21.67-3.39,7.53-8.81,11.73-11.33,13.44-.07-3.67-.15-7.33-.22-11-1.67,2.98-6.21,10.08-15.17,14.32-4.92,2.33-9.46,2.97-12.5,3.14-.17-3.04-.02-7.62,1.76-12.76,3.23-9.37,9.8-14.66,12.58-16.64-3.65.33-7.3.65-10.96.98,1.43-2.7,5.01-8.54,12.12-12.73,9.35-5.5,18.56-4.48,21.35-4.06-3.69-1.83-12.49-5.56-23.61-4.04-11.88,1.63-19.38,8.3-23.69,12.13-10.23,9.09-14.57,19.82-16.41,25.65,1.9-1.3,5.18-3.14,9.59-3.77,1.93-.28,3.65-.26,5.08-.14-5.97,6.65-14.75,18.36-19.35,35.07-1.93,7-2.71,13.41-2.95,18.8,5.34-.83,11.62-2.31,18.37-4.99,16.11-6.4,26.78-16.4,32.74-23.07.28,1.4.48,3.12.42,5.06-.15,4.46-1.62,7.92-2.7,9.95,5.59-2.46,15.78-7.95,23.7-19.11Z"/>
    </g>
  </g>
</svg>